<svg id="Layer_1" data-name="Layer 1" xmlns="http://www.w3.org/2000/svg" viewBox="0 0 595.28 187.41"><defs><style>.cls-1{fill:#003750;}.cls-2{fill:#e86824;}</style></defs><title>NEON-dX , FLytxt Logo_Final</title><polygon class="cls-1" points="269.06 43.1 251.31 88.14 250.97 88.14 233.46 43.1 220.02 43.1 244.48 101.35 244.48 151.46 257.61 151.46 257.61 102.15 282.27 43.1 269.06 43.1"/><polygon class="cls-1" points="125.03 43.1 125.03 151.46 138.14 151.46 138.14 94.43 170.14 94.43 170.14 93.95 170.14 84.38 138.14 84.38 138.14 53.48 175.26 53.48 175.26 43.1 125.03 43.1"/><rect class="cls-2" x="361.39" y="141.44" width="49.24" height="10.19"/><polygon class="cls-1" points="189.38 43.1 189.38 151.48 230.47 151.48 230.47 140.53 202.38 140.53 202.38 43.1 189.38 43.1"/><polygon class="cls-1" points="296.52 43.1 292.52 53.48 314.26 53.48 314.26 151.46 327.38 151.46 327.38 53.48 351.06 53.48 351.16 53.48 350.99 53.07 347.43 43.1 296.52 43.1"/><polygon class="cls-1" points="395.46 42.87 385.94 74.09 376.3 42.87 361.39 42.87 378.34 89.67 361.4 135.74 376.59 135.74 386.07 105.24 395.3 135.74 410.63 135.74 393.53 89.67 410.1 44.01 410.52 42.87 395.46 42.87"/><polygon class="cls-1" points="421.15 52.97 441.36 52.97 441.36 151.63 454.48 151.63 454.48 52.97 476.06 52.97 476.06 42.88 424.69 42.87 421.15 52.97"/></svg>