<?xml version="1.0" encoding="iso-8859-1"?>
<!-- Generator: Adobe Illustrator 19.0.0, SVG Export Plug-In . SVG Version: 6.00 Build 0)  -->
<svg version="1.1" id="Capa_1" xmlns="http://www.w3.org/2000/svg" xmlns:xlink="http://www.w3.org/1999/xlink" x="0px" y="0px"
	 viewBox="0 0 496 496" style="enable-background:new 0 0 496 496;" xml:space="preserve">
<g>
	<g>
		<path d="M459.076,387.808c-7.52-35.72-35.648-62.672-71.648-68.672l-83.432-13.912v-12.048c56.152-22.36,96-77.152,96-141.176
			c0-83.816-68.184-152-152-152s-152,68.184-152,152c0,64.024,39.848,118.816,96,141.176v12.048l-83.44,13.912
			c-36,6-64.12,32.952-71.648,68.672L14.14,496h467.72L459.076,387.808z M333.444,326.352l-25.232,75.704L259.7,359.608l39.04-39.04
			L333.444,326.352z M247.996,348.688l-40-40V298.48c12.768,3.496,26.136,5.52,40,5.52c13.864,0,27.232-2.024,40-5.52v10.208
			L247.996,348.688z M111.996,152c0-74.992,61.008-136,136-136s136,61.008,136,136s-61.008,136-136,136S111.996,226.992,111.996,152
			z M197.252,320.568l39.04,39.04l-48.512,42.448l-25.232-75.704L197.252,320.568z M209.964,480H96.932l7.016-63.12l-15.896-1.768
			L80.836,480H33.852l18.72-88.896c6.16-29.224,29.168-51.28,58.624-56.184l35.376-5.896l33.64,100.928l24.304-21.264l18.696,24.944
			L209.964,480z M226.596,480l14.184-49.624l-24.2-32.256l31.056-27.168l0.36,0.36l0.36-0.36l31.048,27.168l-24.2,32.256
			L269.388,480H226.596z M407.948,415.12l-15.896,1.768L399.06,480H286.028l-13.248-46.376l18.696-24.944l24.304,21.264
			l33.64-100.928l35.376,5.896c29.464,4.912,52.472,26.96,58.624,56.192L462.14,480h-46.984L407.948,415.12z"/>
	</g>
</g>
<g>
	<g>
		<path d="M243.996,48c-24.264,0-44,19.744-44,44v4h16v-4c0-15.44,12.56-28,28-28s28,12.56,28,28v5.088
			c0,7.48-2.912,14.504-8.2,19.808l-23.8,23.792V184h16v-36.688l19.12-19.112c8.312-8.32,12.88-19.368,12.88-31.12V92
			C287.996,67.744,268.26,48,243.996,48z"/>
	</g>
</g>
<g>
	<g>
		<path d="M247.996,208c-13.232,0-24,10.768-24,24s10.768,24,24,24c13.232,0,24-10.768,24-24S261.228,208,247.996,208z M247.996,240
			c-4.408,0-8-3.584-8-8s3.592-8,8-8s8,3.584,8,8S252.404,240,247.996,240z"/>
	</g>
</g>
<g>
</g>
<g>
</g>
<g>
</g>
<g>
</g>
<g>
</g>
<g>
</g>
<g>
</g>
<g>
</g>
<g>
</g>
<g>
</g>
<g>
</g>
<g>
</g>
<g>
</g>
<g>
</g>
<g>
</g>
</svg>
