<?xml version="1.0" ?><svg enable-background="new 0 0 64 64" version="1.1" viewBox="0 0 64 64" xml:space="preserve" xmlns="http://www.w3.org/2000/svg" xmlns:xlink="http://www.w3.org/1999/xlink"><g id="row_4"/><g id="row_3"><g id="diagram"><g><path d="M31,58c0,0.6,0.4,1,1,1s1-0.4,1-1v-0.8h-2V58z" fill="#212121"/><path d="M32,47c-0.6,0-1,0.4-1,1v9.2h2V48C33,47.4,32.6,47,32,47z" fill="#90A4AE"/><path d="M19.3,56.3c-0.4,0.4-0.4,1,0,1.4c0.2,0.2,0.5,0.3,0.7,0.3s0.5-0.1,0.7-0.3l0.6-0.6l-1.4-1.4L19.3,56.3z" fill="#212121"/><path d="M29.7,47.3c-0.4-0.4-1-0.4-1.4,0l-8.4,8.4l1.4,1.4l8.4-8.4C30.1,48.3,30.1,47.7,29.7,47.3z" fill="#90A4AE"/><path d="M35.7,47.3c-0.4-0.4-1-0.4-1.4,0s-0.4,1,0,1.4l8.4,8.4l1.4-1.4L35.7,47.3z" fill="#90A4AE"/><path d="M44.1,55.7l-1.4,1.4l0.6,0.6c0.2,0.2,0.5,0.3,0.7,0.3s0.5-0.1,0.7-0.3c0.4-0.4,0.4-1,0-1.4L44.1,55.7z" fill="#212121"/></g><rect fill="#EEEEEE" height="33" width="43" x="10.5" y="12.5"/><path d="M22.2,21.7c-4.9,4.9-4.9,12.8,0,17.7c2.4,2.4,5.6,3.7,8.8,3.7V18C27.8,18,24.6,19.2,22.2,21.7z" fill="#29B6F6"/><path d="M39.8,39.3c4.9-4.9,4.9-12.8,0-17.7L31,30.5V43C34.2,43,37.4,41.8,39.8,39.3z" fill="#FDD835"/><path d="M34,15v12.5l8.8-8.8C40.4,16.2,37.2,15,34,15z" fill="#F44336"/><rect fill="#B0BEC5" height="6" width="48" x="8" y="7"/><rect fill="#B0BEC5" height="4" width="48" x="8" y="45"/><rect fill="#263238" height="8" width="4" x="56" y="6"/><rect fill="#263238" height="8" width="4" x="4" y="6"/><rect fill="#263238" height="6" width="3" x="5" y="44"/><rect fill="#263238" height="6" width="3" x="56" y="44"/></g></g><g id="row_2"/><g id="row_1"/></svg>