<?xml version="1.0" encoding="iso-8859-1"?>
<!-- Generator: Adobe Illustrator 19.0.0, SVG Export Plug-In . SVG Version: 6.00 Build 0)  -->
<svg version="1.1" id="Layer_1" xmlns="http://www.w3.org/2000/svg" xmlns:xlink="http://www.w3.org/1999/xlink" x="0px" y="0px"
	 viewBox="0 0 512 512" style="enable-background:new 0 0 512 512;" xml:space="preserve">
<circle style="fill:#FF314F;" cx="256" cy="256" r="256"/>
<path style="fill:#A30F44;" d="M93.117,317.483l192.771,192.771c112.109-13.038,202.119-98.49,222.005-208.367L401.384,195.379
	L93.117,317.483z"/>
<path style="fill:#FFFFFF;" d="M341.333,341.333c47.128,0,85.333-38.205,85.333-85.333s-38.205-85.333-85.333-85.333
	c-1.62,0-3.227,0.055-4.825,0.145c-11.678-33.214-43.303-57.034-80.508-57.034c-43.384,0-79.179,32.382-84.597,74.29
	c-7.001-2.057-14.402-3.179-22.069-3.179c-43.201,0-78.222,35.021-78.222,78.222s35.021,78.222,78.222,78.222H341.333z"/>
<path style="fill:#D0D1D3;" d="M341.333,170.667c-1.62,0-3.227,0.055-4.825,0.145c-11.678-33.214-43.303-57.034-80.508-57.034
	v227.556h85.333c47.128,0,85.333-38.205,85.333-85.333S388.461,170.667,341.333,170.667z"/>
<polygon style="fill:#FFC61B;" points="322.851,412.422 322.851,299.787 351.677,299.787 285.306,233.417 218.936,299.787 
	247.761,299.787 247.761,412.422 "/>
<polygon style="fill:#EAA22F;" points="351.677,299.787 285.306,233.417 285.258,233.465 285.258,412.422 322.851,412.422 
	322.851,299.787 "/>
<g>
</g>
<g>
</g>
<g>
</g>
<g>
</g>
<g>
</g>
<g>
</g>
<g>
</g>
<g>
</g>
<g>
</g>
<g>
</g>
<g>
</g>
<g>
</g>
<g>
</g>
<g>
</g>
<g>
</g>
</svg>
