<?xml version="1.0" ?><svg height="400px" version="1.1" viewBox="0 0 400 400" width="400px" xmlns="http://www.w3.org/2000/svg" xmlns:xlink="http://www.w3.org/1999/xlink"><title/><desc/><defs><path d="M200,300 C282.842712,300 350,200 350,200 C350,200 282.842712,100 200,100 C117.157288,100 50,200 50,200 C50,200 117.157288,300 200,300 Z" id="path-1"/><filter filterUnits="objectBoundingBox" height="200%" id="filter-2" width="200%" x="-50%" y="-50%"><feOffset dx="0" dy="4" in="SourceAlpha" result="shadowOffsetOuter1"/><feGaussianBlur in="shadowOffsetOuter1" result="shadowBlurOuter1" stdDeviation="2"/><feColorMatrix in="shadowBlurOuter1" type="matrix" values="0 0 0 0 0   0 0 0 0 0   0 0 0 0 0  0 0 0 0.5 0"/></filter><circle cx="200" cy="200" id="path-3" r="70"/><filter filterUnits="objectBoundingBox" height="200%" id="filter-4" width="200%" x="-50%" y="-50%"><feOffset dx="0" dy="2" in="SourceAlpha" result="shadowOffsetOuter1"/><feGaussianBlur in="shadowOffsetOuter1" result="shadowBlurOuter1" stdDeviation="2"/><feColorMatrix in="shadowBlurOuter1" type="matrix" values="0 0 0 0 0   0 0 0 0 0   0 0 0 0 0  0 0 0 0.5 0"/></filter><circle cx="200" cy="200" id="path-5" r="40"/><filter filterUnits="objectBoundingBox" height="200%" id="filter-6" width="200%" x="-50%" y="-50%"><feOffset dx="0" dy="4" in="SourceAlpha" result="shadowOffsetOuter1"/><feGaussianBlur in="shadowOffsetOuter1" result="shadowBlurOuter1" stdDeviation="2"/><feColorMatrix in="shadowBlurOuter1" type="matrix" values="0 0 0 0 0   0 0 0 0 0   0 0 0 0 0  0 0 0 0.5 0"/></filter></defs><g fill="none" fill-rule="evenodd" id="Page-1" stroke="none" stroke-width="1"><g id="eye"><path d="M200,400 C310.45695,400 400,310.45695 400,200 C400,89.54305 310.45695,0 200,0 C89.54305,0 0,89.54305 0,200 C0,310.45695 89.54305,400 200,400 Z" fill="#AAD8B0" id="Oval-6"/><g id="Oval-45"><use fill="black" fill-opacity="1" filter="url(#filter-2)" xlink:href="#path-1"/><use fill="#67ADD5" fill-rule="evenodd" xlink:href="#path-1"/></g><g id="Oval-46"><use fill="black" fill-opacity="1" filter="url(#filter-4)" xlink:href="#path-3"/><use fill="#FBF0B8" fill-rule="evenodd" xlink:href="#path-3"/></g><g id="Oval-47"><use fill="black" fill-opacity="1" filter="url(#filter-6)" xlink:href="#path-5"/><use fill="#D98383" fill-rule="evenodd" xlink:href="#path-5"/></g><path d="M199.399395,220.035702 C199.408841,220.021134 199.418307,220.006557 199.427791,219.991972 C199.617876,219.997312 199.808624,220 200,220 C211.045695,220 220,211.045695 220,200 C220,199.808624 219.997312,199.617876 219.991972,199.427791 C220.006557,199.418307 220.021134,199.408841 220.035702,199.399395 C220.332387,196.921151 222.441839,195 225,195 C226.667822,195 228.144919,195.816592 229.053285,197.071771 C229.661796,197.634579 230,198.588023 230,200 C230,216.568542 216.568542,230 200,230 C198.588023,230 197.634579,229.661796 197.071771,229.053285 C195.816592,228.144919 195,226.667822 195,225 C195,222.441839 196.921151,220.332387 199.399395,220.035702 L199.399395,220.035702 Z" fill="#FFFFFF" id="Combined-Shape"/></g></g></svg>